Coordinates
version=1
nRows=14
nColumns=33
inDegrees=yes

Units are S.I. units (second, meters, Newtons, ...)
Angles are in degrees.

endheader
time	ground_thorax_rot_x	ground_thorax_rot_y	ground_thorax_rot_z	ground_thorax_tx	ground_thorax_ty	ground_thorax_tz	clav_prot_r	clav_elev_r	scapula_abduction_r	scapula_elevation_r	scapula_upward_rot_r	scapula_winging_r	shoulder_elv_r	plane_of_elev_r	axial_rot_r	elbow_flexion_r	pro_sup_r	wrist_flex_r	wrist_dev_r	clav_prot_l	clav_elev_l	scapula_abduction_l	scapula_elevation_l	scapula_upward_rot_l	scapula_winging_l	shoulder_elv_l	plane_of_elev_l	axial_rot_l	elbow_flexion_l	pro_sup_l	wrist_flex_l	wrist_dev_l
      0.89000000	      2.16405523	     -3.62138514	     12.08745549	     -0.12117517	      1.04634147	      0.00507421	      6.24976034	      1.75972872	     27.51090103	     -2.31772814	     27.54551721	    -12.12401295	     53.97852948	     33.11513939	    -27.10003596	    101.10414834	     53.74915948	      7.12007997	      0.44068315	     13.00933402	     -2.68143571	    -24.40721551	     -1.70430918	      1.56306780	      8.69765107	     63.22283881	     48.67268154	     17.48471721	     97.26494061	     24.04656771	    -18.43406845	    -23.35709160
      0.90000000	      2.12341441	     -3.59715293	     12.13071246	     -0.12121709	      1.04632728	      0.00505283	      6.26494978	      1.63358623	     27.40441410	     -2.37158539	     27.35603447	    -12.05046054	     53.89430215	     32.94190598	    -27.11584736	    102.39802671	     53.76283809	      7.26315253	      0.12334293	     12.99595621	     -2.73280968	    -24.30242115	     -1.73154963	      1.39043888	      8.62562034	     63.43106430	     48.57312935	     17.14691661	     98.22798666	     24.16842384	    -18.61479199	    -23.58835554
      0.91000000	      2.14811134	     -3.55674276	     12.15733532	     -0.12134685	      1.04641778	      0.00501018	      6.30115241	      1.49708284	     27.29990416	     -2.41981217	     27.12051288	    -11.98658101	     53.83783887	     32.75676812	    -27.02771141	    103.71606423	     53.81345325	      7.45555892	     -0.22336208	     13.01349189	     -2.83765557	    -24.23596084	     -1.72646768	      1.18151682	      8.54988464	     63.52717688	     48.59367163	     16.87547146	     99.10401002	     24.30127173	    -18.79607944	    -23.80463130
      0.92000000	      2.03041018	     -3.47639890	     12.41069979	     -0.12169047	      1.04656433	      0.00473817	      6.45585486	      1.31718569	     27.24638182	     -2.45067466	     26.67953037	    -11.90995038	     53.57919192	     32.28814586	    -26.92493158	    105.19468050	     54.19983557	      7.84966498	     -0.96545817	     13.08835071	     -3.12880688	    -24.19821124	     -1.63914229	      0.78278020	      8.44493556	     63.51515206	     48.65154298	     16.34737776	     99.68393351	     24.72800822	    -19.12418089	    -24.09249855
      0.93000000	      2.18197572	     -3.42660401	     12.42339561	     -0.12177120	      1.04656336	      0.00462938	      6.48127407	      1.08282164	     27.41505713	     -2.67555678	     26.80045810	    -11.89970914	     53.39632623	     31.67284527	    -26.46040394	    106.30175802	     55.67012528	      8.84655179	     -2.81402408	     13.01934338	     -3.30261454	    -23.99359288	     -1.57410061	      0.58174189	      8.29607571	     63.23680633	     48.77700524	     15.91318212	    100.49646888	     25.64998424	    -20.06504067	    -24.51544263
      0.94000000	      2.13403282	     -3.45324419	     12.42784302	     -0.12183354	      1.04649124	      0.00457577	      6.53187735	      0.91963972	     27.28561919	     -2.73008844	     26.49715843	    -11.80658109	     53.16345317	     31.43523467	    -26.33553849	    107.62942392	     55.68937475	      9.03078153	     -3.26558433	     12.98917891	     -3.38012429	    -23.86942408	     -1.57604332	      0.41695904	      8.20992734	     63.32784874	     48.73070831	     15.57905912	    101.32303114	     25.71222577	    -20.17147875	    -24.65040887
      0.95000000	      2.13861121	     -3.36809309	     12.54634530	     -0.12191978	      1.04654261	      0.00439113	      6.60958646	      0.70393678	     27.16588769	     -2.81003723	     26.13496275	    -11.70122234	     53.05269162	     30.96721764	    -26.14079212	    108.96615024	     56.01949245	      9.46130064	     -4.01422393	     13.01142473	     -3.61456188	    -23.75043583	     -1.52590720	      0.04872014	      8.07482871	     63.25441931	     48.80208032	     15.12729161	    102.08150254	     25.85692494	    -20.26084104	    -24.79951727
      0.96000000	      2.13735538	     -3.30968945	     12.63435286	     -0.12204320	      1.04661068	      0.00428428	      6.70942428	      0.39254373	     27.09122286	     -2.96641849	     25.76515242	    -11.58368809	     52.92623354	     30.48569941	    -25.85117162	    110.25666028	     56.53904468	     10.04831304	     -4.99865263	     12.99652640	     -3.84943862	    -23.59482335	     -1.45309539	     -0.26433157	      7.92368582	     63.15258871	     48.82450209	     14.67294122	    102.85623107	     26.05009481	    -20.35368790	    -24.95105264
      0.97000000	      2.30295461	     -3.32587588	     12.45266388	     -0.12192481	      1.04614359	      0.00432324	      6.70951382	      0.25028097	     26.94184199	     -3.02524565	     25.54811850	    -11.48785812	     52.99964694	     30.35236370	    -25.55154572	    111.46795337	     56.53267485	     10.26026674	     -5.29249749	     12.96498872	     -3.88410000	    -23.50109725	     -1.46183062	     -0.35296350	      7.86823600	     63.15056787	     48.89105132	     14.65628814	    103.76756636	     26.03288267	    -20.45050619	    -24.99999983
      0.98000000	      2.23714488	     -3.28414971	     12.67581880	     -0.12226305	      1.04644524	      0.00411145	      6.89552578	     -0.11516331	     26.81321991	     -3.14819359	     24.90243749	    -11.33128454	     52.73401732	     29.83896857	    -25.27096937	    112.94396932	     56.66893337	     10.67938803	     -6.07181698	     13.00560133	     -4.20295316	    -23.36344683	     -1.39085067	     -0.84858461	      7.69281297	     63.09219794	     48.76303043	     14.01437129	    104.52039822	     26.20237268	    -20.44979323	    -24.91514362
      0.99000000	      2.39587715	     -3.32661386	     12.53296896	     -0.12207644	      1.04603958	      0.00421417	      6.94371037	     -0.31144154	     26.67585561	     -3.22159099	     24.58213742	    -11.22048917	     52.76587280	     29.65222926	    -24.91252721	    114.25369587	     56.60556567	     10.91186594	     -6.41914413	     13.01305696	     -4.34818056	    -23.30355144	     -1.34098740	     -1.03219995	      7.61478910	     63.05174711	     48.82414140	     13.88180763	    105.27978185	     26.55571922	    -20.65169991	    -24.99999983
      1.00000000	      2.57338168	     -3.24330624	     12.75386650	     -0.12258815	      1.04698020	      0.00386190	      7.12502167	     -1.37563833	     26.74067568	     -3.97281902	     24.10126714	    -10.89026774	     52.90237116	     28.73725644	    -24.01549038	    115.33856000	     56.33171908	     11.70741005	     -8.22644017	     12.86594043	     -5.16978748	    -22.89106814	     -0.82324666	     -1.50174670	      7.17274234	     62.36694731	     48.78617053	     13.05908387	    105.84725808	     30.05675825	    -21.86074783	    -24.85229898
      1.01000000	      2.46425057	     -3.36317176	     12.72254915	     -0.12267059	      1.04668209	      0.00381806	      7.26088829	     -1.59443514	     26.54569312	     -3.98216747	     23.49553131	    -10.75404539	     52.51648031	     28.46195054	    -23.67914989	    116.82044641	     56.00537258	     11.79372024	     -8.55124450	     12.78972401	     -5.10400304	    -22.73676322	     -0.89734215	     -1.54039280	      7.11502657	     62.42975256	     48.64603532	     12.80838022	    106.49921734	     30.23864519	    -21.96291930	    -24.83545805
      1.02000000	      2.50139783	     -3.33471833	     12.81905516	     -0.12278266	      1.04656029	      0.00364401	      7.41394543	     -1.89417708	     26.34164290	     -4.03795701	     22.82266193	    -10.58137361	     52.32714586	     27.99217314	    -23.25049683	    118.27990516	     55.58996228	     11.90658489	     -8.91594201	     12.80418286	     -5.28059454	    -22.62091850	     -0.88588986	     -1.87818698	      6.99586300	     62.26850720	     48.66543800	     12.45577721	    107.11449901	     30.48348490	    -21.99917934	    -24.81594759
